<?xml version="1.0" encoding="UTF-8" standalone="no"?>
<!DOCTYPE svg PUBLIC "-//W3C//DTD SVG 1.1//EN" "http://www.w3.org/Graphics/SVG/1.1/DTD/svg11.dtd">
<svg width="100%" height="100%" viewBox="0 0 310 311" version="1.1" xmlns="http://www.w3.org/2000/svg" xmlns:xlink="http://www.w3.org/1999/xlink" xml:space="preserve" xmlns:serif="http://www.serif.com/" style="fill-rule:evenodd;clip-rule:evenodd;stroke-linecap:round;stroke-linejoin:round;stroke-miterlimit:1.5;">
    <g id="h" transform="matrix(0.95057,0,0,0.72501,50.4455,10.1188)">
        <path d="M109.991,219.97C109.991,361.301 110.062,399.998 65.049,399.998C20.037,399.998 20.023,340.029 20.023,219.97C20.023,99.91 20.175,0 65.049,0C88.851,0 109.983,29.908 109.983,99.954C109.983,99.954 91.749,125.705 91.608,130.983C91.749,125.705 109.983,99.954 109.983,99.954C109.983,99.954 123.289,77.542 154.97,77.542C199.733,77.542 199.96,154.093 199.96,219.97C199.96,340.108 199.972,399.998 154.97,399.998C109.967,399.998 109.991,361.301 109.991,219.97Z" style="fill:rgb(204,204,204);stroke:black;stroke-width:15.77px;"/>
    </g>
</svg>
