<?xml version="1.0" encoding="UTF-8" standalone="no"?><!DOCTYPE svg PUBLIC "-//W3C//DTD SVG 1.1//EN" "http://www.w3.org/Graphics/SVG/1.1/DTD/svg11.dtd"><svg width="100%" height="100%" viewBox="0 0 1920 510" version="1.1" xmlns="http://www.w3.org/2000/svg" xmlns:xlink="http://www.w3.org/1999/xlink" xml:space="preserve" xmlns:serif="http://www.serif.com/" style="fill-rule:evenodd;clip-rule:evenodd;stroke-linecap:round;stroke-linejoin:round;stroke-miterlimit:1.5;"><g id="t"><path d="M1837.53,414.998c-44.925,-0 -45.05,-118.182 -45.05,-224.768c0,-0.772 12.083,9.345 12.801,9.812c24.078,15.641 -35.292,-18.34 -35.292,-47.203c0,-27.519 22.491,-37.885 22.491,-37.885c0,-69.657 0.102,-99.954 45.05,-99.954c44.949,0 44.965,28.096 44.965,98.044c0,0.251 -20.504,-8.819 -18.338,-7.909c7.741,3.252 40.863,10.876 40.863,47.704c0,36.828 -22.604,46.702 -22.525,47.203c0,0 0,34.928 0,34.928c0,120.224 -0.842,180.028 -44.965,180.028Z" style="fill:#fff;stroke:#000;stroke-width:20.83px;"/></g><g id="r2"><path d="M1635,235.026c-0,-81.963 0.135,-142.131 45.033,-142.131c28.94,-0 32.694,14.432 32.694,14.432c0,0 -17.035,10.21 -13.298,7.683c35.972,-24.325 60.925,-11.583 68.362,13.504c14.068,47.459 -51.336,76.9 -66.806,82.053c-6.167,2.053 12.343,-3.942 24.065,-10.468l0,34.927c0,120.117 -0.109,180.028 -45.017,180.028c-44.908,0 -45.033,-59.966 -45.033,-180.028Z" style="fill:#fff;stroke:#000;stroke-width:20.83px;"/></g><g id="a3"><path d="M1545.07,414.941c-90.053,0 -89.978,-59.961 -89.978,-180.028c-0,-120.066 22.716,-142.131 70.509,-142.131c34.945,0 43.947,22.007 44.004,22.116c32.363,62.1 -24.127,-22.116 20.423,-22.116c44.55,0 44.996,21.694 44.996,60.001l0,202.196c0,29.446 0.054,60.019 -44.996,60.019c-24.1,-0 -21.283,-60.019 -22.727,-60.019c-1.444,0 0.372,59.962 -22.231,59.962Z" style="fill:#fff;stroke:#000;stroke-width:20.83px;"/><path d="M1545.06,164.903l0,130.869" style="fill:none;stroke:#000;stroke-width:20.83px;"/></g><g id="p"><path d="M1274.89,295.828l-0,-60.858c-0,-0 0.635,-142.131 45.093,-142.131c14.573,-0 45.04,-0.015 45.04,22.115c0,10.697 89.983,-75.263 89.983,37.885c-0,113.148 4.069,172.619 -45.046,202.197c-20.347,12.253 -38.944,20.154 -56.422,28.325c-0.021,0.116 33.141,-15.447 33.141,-15.339c0,86.576 -12.603,124.752 -55.119,124.752c-57.151,-0 -56.67,-78.176 -56.67,-196.946Z" style="fill:#fff;stroke:#000;stroke-width:20.83px;"/><path d="M1364.95,164.959l0.075,127.847" style="fill:none;stroke:#000;stroke-width:20.83px;"/></g><g id="a2"><path d="M1184.94,414.998c-90.052,-0 -89.978,-59.962 -89.978,-180.028c0,-120.067 22.716,-142.131 70.51,-142.131c34.944,-0 43.947,22.006 44.003,22.115c32.363,62.1 -24.127,-22.115 20.424,-22.115c44.55,-0 44.996,21.693 44.996,60l-0,202.197c-0,29.446 0.053,60.018 -44.996,60.018c-24.1,0 -21.284,-60.018 -22.728,-60.018c-1.443,-0 0.373,59.962 -22.231,59.962Z" style="fill:#fff;stroke:#000;stroke-width:20.83px;"/><path d="M1184.93,164.959l-0,130.869" style="fill:none;stroke:#000;stroke-width:20.83px;"/></g><g id="r1"><path d="M906.352,234.97c0,-81.964 0.135,-142.131 45.034,-142.131c28.94,-0 32.694,14.432 32.694,14.432c-0,0 -17.036,10.21 -13.299,7.683c35.972,-24.326 60.925,-11.583 68.362,13.504c14.069,47.459 -51.335,76.9 -66.806,82.052c-6.166,2.054 12.343,-3.941 24.066,-10.468l-0,34.928c-0,120.117 -0.109,180.028 -45.017,180.028c-44.909,-0 -45.034,-59.967 -45.034,-180.028Z" style="fill:#fff;stroke:#000;stroke-width:20.83px;"/></g><g id="a1"><path d="M816.397,414.998c-90.052,-0 -89.977,-59.962 -89.977,-180.028c-0,-120.067 22.715,-142.131 70.509,-142.131c34.945,-0 43.947,22.006 44.004,22.115c32.363,62.1 -24.128,-22.115 20.423,-22.115c44.55,-0 44.996,21.693 44.996,60l0,202.197c0,29.446 0.054,60.018 -44.996,60.018c-24.1,0 -21.284,-60.018 -22.727,-60.018c-1.444,-0 0.372,59.962 -22.232,59.962Z" style="fill:#fff;stroke:#000;stroke-width:20.83px;"/><path d="M816.386,164.959l-0,130.869" style="fill:none;stroke:#000;stroke-width:20.83px;"/></g><g id="f"><path d="M615.017,355.036c0,-0 0,-120.067 0,-120.07c0.001,-70.015 -0.013,-219.966 90.024,-219.966c45.162,0 44.984,46.591 44.99,53.26c0.033,32.562 -26.46,32.935 -74.644,51.273c-0.269,0.103 29.654,-10.191 29.654,-10.191c-0,-0 25.027,27.72 25.027,55.617c-0,27.896 -53.792,50.074 -54.118,50.04c-0.1,-0.011 17.381,-8.891 17.381,-8.527c0,98.312 3.282,208.526 -33.363,208.526c-44.806,-0 -45.178,-60.136 -44.951,-59.962Z" style="fill:#fff;stroke:#000;stroke-width:20.83px;"/></g><g id="e"><path d="M374.972,234.97c0,-0 0.421,-142.131 90.063,-142.131c89.641,-0 89.942,71.927 89.942,97.324c0,89.773 -66.025,110.143 -66.499,110.301c-0.39,0.131 -25.529,-4.119 -41.939,-4.636c-0.358,-0.011 108.438,0.429 108.438,59.208c0,21.745 -22.529,59.962 -89.942,59.962c-67.414,-0 -90.063,-59.961 -90.063,-180.028Z" style="fill:#fff;stroke:#000;stroke-width:20.83px;"/><path d="M465.035,164.959l-0.06,70.011" style="fill:none;stroke:#000;stroke-width:20.83px;"/></g><g id="u"><path d="M194.96,234.97c-0,120.162 0.293,180.028 90.007,180.028c89.714,-0 90.005,-59.746 90.005,-180.028c0,-70.039 -0.076,-142.131 -44.935,-142.131c-44.859,-0 -45.07,72.163 -45.07,203.393c0.221,-131.23 0.181,-203.393 -44.956,-203.393c-45.137,-0 -45.166,71.996 -45.051,142.131Z" style="fill:#fff;stroke:#000;stroke-width:20.83px;"/></g><g id="h"><path d="M104.983,234.97c-0,141.331 0.07,180.028 -44.942,180.028c-45.012,-0 -45.027,-59.969 -45.027,-180.028c0,-120.06 0.153,-219.97 45.027,-219.97c23.801,0 44.934,29.908 44.934,99.954c-0,-0 -18.234,25.751 -18.375,31.029c0.141,-5.278 18.375,-31.029 18.375,-31.029c-0,-0 13.306,-22.412 44.986,-22.412c44.764,-0 44.99,76.551 44.99,142.428c0,120.138 0.013,180.028 -44.99,180.028c-45.002,-0 -44.978,-38.697 -44.978,-180.028Z" style="fill:#fff;stroke:#000;stroke-width:20.83px;"/></g></svg>