<svg width="30px" height="18px" viewBox="0 0 30 18" version="1.1" xmlns="http://www.w3.org/2000/svg" xmlns:xlink="http://www.w3.org/1999/xlink" xml:space="preserve" xmlns:serif="http://www.serif.com/" style="fill-rule:evenodd;clip-rule:evenodd;stroke-linejoin:round;stroke-miterlimit:2;"><g transform="matrix(0.185185,0,0,0.1875,-0.740741,-0.375)"><path d="M4,2L4,74L72,74L72,98L166,98L166,2L4,2Z"/></g><g transform="matrix(0.1875,0,0,0.1875,-0.9375,-0.375)"><path d="M14,12L14,64L44,64L44,30L52,30L52,64L74,64L74,30L82,30L82,64L94,64L94,12L14,12Z" style="fill:white;"/></g><g transform="matrix(0.1875,0,0,0.1875,-0.9375,-0.375)"><path d="M106,12L106,64L132,64L132,74L84,74L84,88L156,88L156,12L106,12Z" style="fill:white;"/></g><g transform="matrix(0.1875,0,0,0.1875,-0.9375,-0.375)"><rect x="124" y="30" width="8" height="24"/></g></svg>
